<mxfile host="app.diagrams.net" modified="2023-12-19T09:52:37.457Z" agent="Mozilla/5.0 (Windows NT 10.0; Win64; x64) AppleWebKit/537.36 (KHTML, like Gecko) Chrome/120.0.0.0 Safari/537.36" etag="YFxDJkfPjzPIUU9mboPl" version="22.1.11" type="github">
  <diagram name="Page-1" id="q4jxJP4orP9H1aTKfwqT">
    <mxGraphModel dx="1843" dy="746" grid="1" gridSize="10" guides="1" tooltips="1" connect="1" arrows="1" fold="1" page="1" pageScale="1" pageWidth="827" pageHeight="1169" math="0" shadow="0">
      <root>
        <mxCell id="0" />
        <mxCell id="1" parent="0" />
        <mxCell id="BZglE8ulwBrZ0Am1daT7-1" value="Department" style="rounded=0;whiteSpace=wrap;html=1;fontSize=16;" parent="1" vertex="1">
          <mxGeometry x="867" y="347" width="120" height="60" as="geometry" />
        </mxCell>
        <mxCell id="BZglE8ulwBrZ0Am1daT7-2" value="" style="edgeStyle=none;curved=1;rounded=0;orthogonalLoop=1;jettySize=auto;html=1;fontSize=12;startSize=8;endSize=8;" parent="1" source="BZglE8ulwBrZ0Am1daT7-4" target="BZglE8ulwBrZ0Am1daT7-79" edge="1">
          <mxGeometry relative="1" as="geometry" />
        </mxCell>
        <mxCell id="BZglE8ulwBrZ0Am1daT7-3" value="" style="edgeStyle=none;curved=1;rounded=0;orthogonalLoop=1;jettySize=auto;html=1;fontSize=12;startSize=8;endSize=8;" parent="1" source="BZglE8ulwBrZ0Am1daT7-4" target="BZglE8ulwBrZ0Am1daT7-79" edge="1">
          <mxGeometry relative="1" as="geometry" />
        </mxCell>
        <mxCell id="BZglE8ulwBrZ0Am1daT7-4" value="Document" style="rounded=0;whiteSpace=wrap;html=1;fontSize=16;" parent="1" vertex="1">
          <mxGeometry x="509" y="347" width="120" height="60" as="geometry" />
        </mxCell>
        <mxCell id="BZglE8ulwBrZ0Am1daT7-5" value="Specialty" style="rounded=0;whiteSpace=wrap;html=1;fontSize=16;" parent="1" vertex="1">
          <mxGeometry x="867" y="522" width="120" height="60" as="geometry" />
        </mxCell>
        <mxCell id="BZglE8ulwBrZ0Am1daT7-6" value="" style="edgeStyle=none;curved=1;rounded=0;orthogonalLoop=1;jettySize=auto;html=1;fontSize=12;startSize=8;endSize=8;" parent="1" source="BZglE8ulwBrZ0Am1daT7-8" target="BZglE8ulwBrZ0Am1daT7-83" edge="1">
          <mxGeometry relative="1" as="geometry" />
        </mxCell>
        <mxCell id="BZglE8ulwBrZ0Am1daT7-7" value="" style="edgeStyle=none;curved=1;rounded=0;orthogonalLoop=1;jettySize=auto;html=1;fontSize=12;startSize=8;endSize=8;" parent="1" source="BZglE8ulwBrZ0Am1daT7-8" target="BZglE8ulwBrZ0Am1daT7-87" edge="1">
          <mxGeometry relative="1" as="geometry" />
        </mxCell>
        <mxCell id="BZglE8ulwBrZ0Am1daT7-8" value="faculty members" style="rounded=0;whiteSpace=wrap;html=1;fontSize=16;" parent="1" vertex="1">
          <mxGeometry x="368" y="565" width="142" height="60" as="geometry" />
        </mxCell>
        <mxCell id="BZglE8ulwBrZ0Am1daT7-9" value="Permission" style="rounded=0;whiteSpace=wrap;html=1;fontSize=16;" parent="1" vertex="1">
          <mxGeometry x="509" y="824" width="120" height="60" as="geometry" />
        </mxCell>
        <mxCell id="BZglE8ulwBrZ0Am1daT7-10" value="" style="edgeStyle=none;curved=1;rounded=0;orthogonalLoop=1;jettySize=auto;html=1;fontSize=12;startSize=8;endSize=8;" parent="1" source="BZglE8ulwBrZ0Am1daT7-11" target="BZglE8ulwBrZ0Am1daT7-85" edge="1">
          <mxGeometry relative="1" as="geometry" />
        </mxCell>
        <mxCell id="BZglE8ulwBrZ0Am1daT7-11" value="Comment" style="rounded=0;whiteSpace=wrap;html=1;fontSize=16;" parent="1" vertex="1">
          <mxGeometry x="869" y="821" width="120" height="60" as="geometry" />
        </mxCell>
        <mxCell id="BZglE8ulwBrZ0Am1daT7-12" value="Notification" style="rounded=0;whiteSpace=wrap;html=1;fontSize=16;" parent="1" vertex="1">
          <mxGeometry x="873" y="1159" width="120" height="60" as="geometry" />
        </mxCell>
        <mxCell id="BZglE8ulwBrZ0Am1daT7-13" value="" style="edgeStyle=none;curved=1;rounded=0;orthogonalLoop=1;jettySize=auto;html=1;fontSize=12;startSize=8;endSize=8;" parent="1" source="BZglE8ulwBrZ0Am1daT7-14" target="BZglE8ulwBrZ0Am1daT7-89" edge="1">
          <mxGeometry relative="1" as="geometry" />
        </mxCell>
        <mxCell id="BZglE8ulwBrZ0Am1daT7-14" value="API" style="rounded=0;whiteSpace=wrap;html=1;fontSize=16;" parent="1" vertex="1">
          <mxGeometry x="511" y="1159" width="120" height="60" as="geometry" />
        </mxCell>
        <mxCell id="BZglE8ulwBrZ0Am1daT7-15" value="Name" style="ellipse;whiteSpace=wrap;html=1;fontSize=16;" parent="1" vertex="1">
          <mxGeometry x="1038" y="262" width="120" height="80" as="geometry" />
        </mxCell>
        <mxCell id="BZglE8ulwBrZ0Am1daT7-16" value="DepartmentID" style="ellipse;whiteSpace=wrap;html=1;fontSize=16;" parent="1" vertex="1">
          <mxGeometry x="224" y="259" width="120" height="80" as="geometry" />
        </mxCell>
        <mxCell id="BZglE8ulwBrZ0Am1daT7-17" value="SpecialtyID" style="ellipse;whiteSpace=wrap;html=1;fontSize=16;" parent="1" vertex="1">
          <mxGeometry x="262" y="342" width="120" height="80" as="geometry" />
        </mxCell>
        <mxCell id="BZglE8ulwBrZ0Am1daT7-18" value="LastModifiedDate" style="ellipse;whiteSpace=wrap;html=1;fontSize=16;" parent="1" vertex="1">
          <mxGeometry x="195" y="175" width="149" height="80" as="geometry" />
        </mxCell>
        <mxCell id="BZglE8ulwBrZ0Am1daT7-19" value="Title" style="ellipse;whiteSpace=wrap;html=1;fontSize=16;" parent="1" vertex="1">
          <mxGeometry x="497" y="40" width="120" height="80" as="geometry" />
        </mxCell>
        <mxCell id="BZglE8ulwBrZ0Am1daT7-20" value="Content" style="ellipse;whiteSpace=wrap;html=1;fontSize=16;" parent="1" vertex="1">
          <mxGeometry x="368" y="43" width="120" height="80" as="geometry" />
        </mxCell>
        <mxCell id="BZglE8ulwBrZ0Am1daT7-21" value="UploadDate" style="ellipse;whiteSpace=wrap;html=1;fontSize=16;" parent="1" vertex="1">
          <mxGeometry x="262" y="88" width="120" height="80" as="geometry" />
        </mxCell>
        <mxCell id="BZglE8ulwBrZ0Am1daT7-22" value="DocumentID" style="ellipse;whiteSpace=wrap;html=1;fontSize=16;" parent="1" vertex="1">
          <mxGeometry x="612" y="88" width="120" height="80" as="geometry" />
        </mxCell>
        <mxCell id="BZglE8ulwBrZ0Am1daT7-23" value="" style="endArrow=none;html=1;rounded=0;fontSize=12;startSize=8;endSize=8;curved=1;exitX=0.648;exitY=0.048;exitDx=0;exitDy=0;exitPerimeter=0;" parent="1" source="BZglE8ulwBrZ0Am1daT7-4" target="BZglE8ulwBrZ0Am1daT7-22" edge="1">
          <mxGeometry width="50" height="50" relative="1" as="geometry">
            <mxPoint x="578" y="259" as="sourcePoint" />
            <mxPoint x="628" y="209" as="targetPoint" />
          </mxGeometry>
        </mxCell>
        <mxCell id="BZglE8ulwBrZ0Am1daT7-24" value="" style="endArrow=none;html=1;rounded=0;fontSize=12;startSize=8;endSize=8;curved=1;" parent="1" source="BZglE8ulwBrZ0Am1daT7-4" target="BZglE8ulwBrZ0Am1daT7-19" edge="1">
          <mxGeometry width="50" height="50" relative="1" as="geometry">
            <mxPoint x="524" y="322" as="sourcePoint" />
            <mxPoint x="574" y="272" as="targetPoint" />
          </mxGeometry>
        </mxCell>
        <mxCell id="BZglE8ulwBrZ0Am1daT7-25" value="" style="endArrow=none;html=1;rounded=0;fontSize=12;startSize=8;endSize=8;curved=1;exitX=1;exitY=1;exitDx=0;exitDy=0;entryX=0;entryY=0.25;entryDx=0;entryDy=0;" parent="1" source="BZglE8ulwBrZ0Am1daT7-18" target="BZglE8ulwBrZ0Am1daT7-4" edge="1">
          <mxGeometry width="50" height="50" relative="1" as="geometry">
            <mxPoint x="400" y="309" as="sourcePoint" />
            <mxPoint x="450" y="259" as="targetPoint" />
          </mxGeometry>
        </mxCell>
        <mxCell id="BZglE8ulwBrZ0Am1daT7-26" value="" style="endArrow=none;html=1;rounded=0;fontSize=12;startSize=8;endSize=8;curved=1;" parent="1" source="BZglE8ulwBrZ0Am1daT7-4" target="BZglE8ulwBrZ0Am1daT7-20" edge="1">
          <mxGeometry width="50" height="50" relative="1" as="geometry">
            <mxPoint x="392" y="243" as="sourcePoint" />
            <mxPoint x="442" y="193" as="targetPoint" />
          </mxGeometry>
        </mxCell>
        <mxCell id="BZglE8ulwBrZ0Am1daT7-27" value="" style="endArrow=none;html=1;rounded=0;fontSize=12;startSize=8;endSize=8;curved=1;exitX=1;exitY=0.5;exitDx=0;exitDy=0;entryX=0;entryY=0.75;entryDx=0;entryDy=0;" parent="1" source="BZglE8ulwBrZ0Am1daT7-17" target="BZglE8ulwBrZ0Am1daT7-4" edge="1">
          <mxGeometry width="50" height="50" relative="1" as="geometry">
            <mxPoint x="422" y="409" as="sourcePoint" />
            <mxPoint x="472" y="359" as="targetPoint" />
          </mxGeometry>
        </mxCell>
        <mxCell id="BZglE8ulwBrZ0Am1daT7-28" value="" style="endArrow=none;html=1;rounded=0;fontSize=12;startSize=8;endSize=8;curved=1;exitX=1;exitY=0.5;exitDx=0;exitDy=0;entryX=0;entryY=0.5;entryDx=0;entryDy=0;" parent="1" source="BZglE8ulwBrZ0Am1daT7-16" target="BZglE8ulwBrZ0Am1daT7-4" edge="1">
          <mxGeometry width="50" height="50" relative="1" as="geometry">
            <mxPoint x="428" y="334" as="sourcePoint" />
            <mxPoint x="478" y="284" as="targetPoint" />
          </mxGeometry>
        </mxCell>
        <mxCell id="BZglE8ulwBrZ0Am1daT7-29" value="" style="endArrow=none;html=1;rounded=0;fontSize=12;startSize=8;endSize=8;curved=1;entryX=1;entryY=1;entryDx=0;entryDy=0;" parent="1" source="BZglE8ulwBrZ0Am1daT7-4" target="BZglE8ulwBrZ0Am1daT7-21" edge="1">
          <mxGeometry width="50" height="50" relative="1" as="geometry">
            <mxPoint x="380" y="276" as="sourcePoint" />
            <mxPoint x="430" y="226" as="targetPoint" />
          </mxGeometry>
        </mxCell>
        <mxCell id="BZglE8ulwBrZ0Am1daT7-30" value="Name" style="ellipse;whiteSpace=wrap;html=1;fontSize=16;" parent="1" vertex="1">
          <mxGeometry x="157" y="656" width="120" height="80" as="geometry" />
        </mxCell>
        <mxCell id="BZglE8ulwBrZ0Am1daT7-31" value="FMID" style="ellipse;whiteSpace=wrap;html=1;fontSize=16;" parent="1" vertex="1">
          <mxGeometry x="40" y="619" width="120" height="80" as="geometry" />
        </mxCell>
        <mxCell id="BZglE8ulwBrZ0Am1daT7-32" value="Name" style="ellipse;whiteSpace=wrap;html=1;fontSize=16;" parent="1" vertex="1">
          <mxGeometry x="1038" y="570" width="120" height="80" as="geometry" />
        </mxCell>
        <mxCell id="BZglE8ulwBrZ0Am1daT7-33" value="SpecialtyID" style="ellipse;whiteSpace=wrap;html=1;fontSize=16;" parent="1" vertex="1">
          <mxGeometry x="1038" y="448" width="120" height="80" as="geometry" />
        </mxCell>
        <mxCell id="BZglE8ulwBrZ0Am1daT7-34" value="DepartmentID" style="ellipse;whiteSpace=wrap;html=1;fontSize=16;" parent="1" vertex="1">
          <mxGeometry x="869" y="168" width="120" height="80" as="geometry" />
        </mxCell>
        <mxCell id="BZglE8ulwBrZ0Am1daT7-35" value="" style="endArrow=none;html=1;rounded=0;fontSize=12;startSize=8;endSize=8;curved=1;entryX=0;entryY=0.5;entryDx=0;entryDy=0;exitX=1;exitY=0.75;exitDx=0;exitDy=0;" parent="1" source="BZglE8ulwBrZ0Am1daT7-1" target="BZglE8ulwBrZ0Am1daT7-15" edge="1">
          <mxGeometry width="50" height="50" relative="1" as="geometry">
            <mxPoint x="796" y="371" as="sourcePoint" />
            <mxPoint x="846" y="321" as="targetPoint" />
          </mxGeometry>
        </mxCell>
        <mxCell id="BZglE8ulwBrZ0Am1daT7-36" value="" style="endArrow=none;html=1;rounded=0;fontSize=12;startSize=8;endSize=8;curved=1;" parent="1" target="BZglE8ulwBrZ0Am1daT7-34" edge="1">
          <mxGeometry width="50" height="50" relative="1" as="geometry">
            <mxPoint x="910" y="347" as="sourcePoint" />
            <mxPoint x="960" y="297" as="targetPoint" />
          </mxGeometry>
        </mxCell>
        <mxCell id="BZglE8ulwBrZ0Am1daT7-37" value="" style="endArrow=none;html=1;rounded=0;fontSize=12;startSize=8;endSize=8;curved=1;entryX=0.913;entryY=0.977;entryDx=0;entryDy=0;entryPerimeter=0;" parent="1" source="BZglE8ulwBrZ0Am1daT7-30" target="BZglE8ulwBrZ0Am1daT7-8" edge="1">
          <mxGeometry width="50" height="50" relative="1" as="geometry">
            <mxPoint x="907" y="678" as="sourcePoint" />
            <mxPoint x="484" y="616" as="targetPoint" />
          </mxGeometry>
        </mxCell>
        <mxCell id="BZglE8ulwBrZ0Am1daT7-38" value="Role" style="ellipse;whiteSpace=wrap;html=1;fontSize=16;" parent="1" vertex="1">
          <mxGeometry x="153" y="481" width="120" height="80" as="geometry" />
        </mxCell>
        <mxCell id="BZglE8ulwBrZ0Am1daT7-39" value="Email" style="ellipse;whiteSpace=wrap;html=1;fontSize=16;" parent="1" vertex="1">
          <mxGeometry x="44" y="535" width="120" height="80" as="geometry" />
        </mxCell>
        <mxCell id="BZglE8ulwBrZ0Am1daT7-40" value="" style="endArrow=none;html=1;rounded=0;fontSize=12;startSize=8;endSize=8;curved=1;exitX=1;exitY=0;exitDx=0;exitDy=0;entryX=0.949;entryY=0.726;entryDx=0;entryDy=0;entryPerimeter=0;" parent="1" source="BZglE8ulwBrZ0Am1daT7-8" target="BZglE8ulwBrZ0Am1daT7-38" edge="1">
          <mxGeometry width="50" height="50" relative="1" as="geometry">
            <mxPoint x="972" y="538" as="sourcePoint" />
            <mxPoint x="1022" y="488" as="targetPoint" />
          </mxGeometry>
        </mxCell>
        <mxCell id="BZglE8ulwBrZ0Am1daT7-41" value="" style="endArrow=none;html=1;rounded=0;fontSize=12;startSize=8;endSize=8;curved=1;exitX=0;exitY=0.5;exitDx=0;exitDy=0;" parent="1" source="BZglE8ulwBrZ0Am1daT7-8" target="BZglE8ulwBrZ0Am1daT7-39" edge="1">
          <mxGeometry width="50" height="50" relative="1" as="geometry">
            <mxPoint x="1016" y="596" as="sourcePoint" />
            <mxPoint x="1066" y="546" as="targetPoint" />
          </mxGeometry>
        </mxCell>
        <mxCell id="BZglE8ulwBrZ0Am1daT7-42" value="" style="endArrow=none;html=1;rounded=0;fontSize=12;startSize=8;endSize=8;curved=1;exitX=0;exitY=1;exitDx=0;exitDy=0;" parent="1" source="BZglE8ulwBrZ0Am1daT7-8" target="BZglE8ulwBrZ0Am1daT7-31" edge="1">
          <mxGeometry width="50" height="50" relative="1" as="geometry">
            <mxPoint x="1050" y="614" as="sourcePoint" />
            <mxPoint x="1100" y="564" as="targetPoint" />
          </mxGeometry>
        </mxCell>
        <mxCell id="BZglE8ulwBrZ0Am1daT7-43" value="PermissionID" style="ellipse;whiteSpace=wrap;html=1;fontSize=16;" parent="1" vertex="1">
          <mxGeometry x="308" y="747" width="120" height="80" as="geometry" />
        </mxCell>
        <mxCell id="BZglE8ulwBrZ0Am1daT7-44" value="Endpoint" style="ellipse;whiteSpace=wrap;html=1;fontSize=16;" parent="1" vertex="1">
          <mxGeometry x="350" y="1232" width="120" height="80" as="geometry" />
        </mxCell>
        <mxCell id="BZglE8ulwBrZ0Am1daT7-45" value="Description" style="ellipse;whiteSpace=wrap;html=1;fontSize=16;" parent="1" vertex="1">
          <mxGeometry x="262" y="1159" width="120" height="80" as="geometry" />
        </mxCell>
        <mxCell id="BZglE8ulwBrZ0Am1daT7-46" value="Timestamp" style="ellipse;whiteSpace=wrap;html=1;fontSize=16;" parent="1" vertex="1">
          <mxGeometry x="1058" y="1284" width="120" height="80" as="geometry" />
        </mxCell>
        <mxCell id="BZglE8ulwBrZ0Am1daT7-47" value="Message" style="ellipse;whiteSpace=wrap;html=1;fontSize=16;" parent="1" vertex="1">
          <mxGeometry x="1165" y="1225" width="120" height="80" as="geometry" />
        </mxCell>
        <mxCell id="BZglE8ulwBrZ0Am1daT7-48" value="FMID" style="ellipse;whiteSpace=wrap;html=1;fontSize=16;" parent="1" vertex="1">
          <mxGeometry x="1165" y="1134" width="120" height="80" as="geometry" />
        </mxCell>
        <mxCell id="BZglE8ulwBrZ0Am1daT7-49" value="NotificationID" style="ellipse;whiteSpace=wrap;html=1;fontSize=16;" parent="1" vertex="1">
          <mxGeometry x="1045" y="1060" width="120" height="80" as="geometry" />
        </mxCell>
        <mxCell id="BZglE8ulwBrZ0Am1daT7-50" value="Timestamp" style="ellipse;whiteSpace=wrap;html=1;fontSize=16;" parent="1" vertex="1">
          <mxGeometry x="1058" y="950" width="120" height="80" as="geometry" />
        </mxCell>
        <mxCell id="BZglE8ulwBrZ0Am1daT7-51" value="DocumentID" style="ellipse;whiteSpace=wrap;html=1;fontSize=16;" parent="1" vertex="1">
          <mxGeometry x="1168" y="906" width="120" height="80" as="geometry" />
        </mxCell>
        <mxCell id="BZglE8ulwBrZ0Am1daT7-52" value="AuthorID" style="ellipse;whiteSpace=wrap;html=1;fontSize=16;" parent="1" vertex="1">
          <mxGeometry x="1264" y="843" width="120" height="80" as="geometry" />
        </mxCell>
        <mxCell id="BZglE8ulwBrZ0Am1daT7-53" value="Content" style="ellipse;whiteSpace=wrap;html=1;fontSize=16;" parent="1" vertex="1">
          <mxGeometry x="1174" y="775" width="120" height="80" as="geometry" />
        </mxCell>
        <mxCell id="BZglE8ulwBrZ0Am1daT7-54" value="CommentID" style="ellipse;whiteSpace=wrap;html=1;fontSize=16;" parent="1" vertex="1">
          <mxGeometry x="1058" y="741" width="120" height="80" as="geometry" />
        </mxCell>
        <mxCell id="BZglE8ulwBrZ0Am1daT7-55" value="AccessType" style="ellipse;whiteSpace=wrap;html=1;fontSize=16;" parent="1" vertex="1">
          <mxGeometry x="308" y="956" width="120" height="80" as="geometry" />
        </mxCell>
        <mxCell id="BZglE8ulwBrZ0Am1daT7-56" value="DocumentID" style="ellipse;whiteSpace=wrap;html=1;fontSize=16;" parent="1" vertex="1">
          <mxGeometry x="215" y="898" width="120" height="80" as="geometry" />
        </mxCell>
        <mxCell id="BZglE8ulwBrZ0Am1daT7-57" value="FMID" style="ellipse;whiteSpace=wrap;html=1;fontSize=16;" parent="1" vertex="1">
          <mxGeometry x="215" y="811" width="120" height="80" as="geometry" />
        </mxCell>
        <mxCell id="BZglE8ulwBrZ0Am1daT7-58" style="edgeStyle=none;curved=1;rounded=0;orthogonalLoop=1;jettySize=auto;html=1;exitX=0;exitY=0;exitDx=0;exitDy=0;fontSize=12;startSize=8;endSize=8;" parent="1" source="BZglE8ulwBrZ0Am1daT7-55" target="BZglE8ulwBrZ0Am1daT7-55" edge="1">
          <mxGeometry relative="1" as="geometry" />
        </mxCell>
        <mxCell id="BZglE8ulwBrZ0Am1daT7-59" style="edgeStyle=none;curved=1;rounded=0;orthogonalLoop=1;jettySize=auto;html=1;exitX=1;exitY=0.5;exitDx=0;exitDy=0;fontSize=12;startSize=8;endSize=8;" parent="1" source="BZglE8ulwBrZ0Am1daT7-55" target="BZglE8ulwBrZ0Am1daT7-55" edge="1">
          <mxGeometry relative="1" as="geometry" />
        </mxCell>
        <mxCell id="BZglE8ulwBrZ0Am1daT7-60" value="" style="endArrow=none;html=1;rounded=0;fontSize=12;startSize=8;endSize=8;curved=1;entryX=1;entryY=0.5;entryDx=0;entryDy=0;" parent="1" target="BZglE8ulwBrZ0Am1daT7-43" edge="1">
          <mxGeometry width="50" height="50" relative="1" as="geometry">
            <mxPoint x="547" y="823" as="sourcePoint" />
            <mxPoint x="597" y="773" as="targetPoint" />
          </mxGeometry>
        </mxCell>
        <mxCell id="BZglE8ulwBrZ0Am1daT7-61" value="" style="endArrow=none;html=1;rounded=0;fontSize=12;startSize=8;endSize=8;curved=1;entryX=0.5;entryY=1;entryDx=0;entryDy=0;exitX=1;exitY=0.5;exitDx=0;exitDy=0;" parent="1" source="BZglE8ulwBrZ0Am1daT7-55" target="BZglE8ulwBrZ0Am1daT7-9" edge="1">
          <mxGeometry width="50" height="50" relative="1" as="geometry">
            <mxPoint x="500" y="962" as="sourcePoint" />
            <mxPoint x="550" y="912" as="targetPoint" />
          </mxGeometry>
        </mxCell>
        <mxCell id="BZglE8ulwBrZ0Am1daT7-62" value="" style="endArrow=none;html=1;rounded=0;fontSize=12;startSize=8;endSize=8;curved=1;entryX=0;entryY=0.75;entryDx=0;entryDy=0;" parent="1" source="BZglE8ulwBrZ0Am1daT7-56" target="BZglE8ulwBrZ0Am1daT7-9" edge="1">
          <mxGeometry width="50" height="50" relative="1" as="geometry">
            <mxPoint x="414" y="931" as="sourcePoint" />
            <mxPoint x="464" y="881" as="targetPoint" />
          </mxGeometry>
        </mxCell>
        <mxCell id="BZglE8ulwBrZ0Am1daT7-63" value="" style="endArrow=none;html=1;rounded=0;fontSize=12;startSize=8;endSize=8;curved=1;entryX=0;entryY=0.25;entryDx=0;entryDy=0;" parent="1" source="BZglE8ulwBrZ0Am1daT7-57" target="BZglE8ulwBrZ0Am1daT7-9" edge="1">
          <mxGeometry width="50" height="50" relative="1" as="geometry">
            <mxPoint x="378" y="878" as="sourcePoint" />
            <mxPoint x="428" y="828" as="targetPoint" />
          </mxGeometry>
        </mxCell>
        <mxCell id="BZglE8ulwBrZ0Am1daT7-64" value="" style="endArrow=none;html=1;rounded=0;fontSize=12;startSize=8;endSize=8;curved=1;entryX=0;entryY=0;entryDx=0;entryDy=0;exitX=0.5;exitY=0;exitDx=0;exitDy=0;" parent="1" source="BZglE8ulwBrZ0Am1daT7-11" target="BZglE8ulwBrZ0Am1daT7-54" edge="1">
          <mxGeometry width="50" height="50" relative="1" as="geometry">
            <mxPoint x="987" y="808" as="sourcePoint" />
            <mxPoint x="1037" y="758" as="targetPoint" />
          </mxGeometry>
        </mxCell>
        <mxCell id="BZglE8ulwBrZ0Am1daT7-65" value="" style="endArrow=none;html=1;rounded=0;fontSize=12;startSize=8;endSize=8;curved=1;exitX=1;exitY=0.5;exitDx=0;exitDy=0;" parent="1" source="BZglE8ulwBrZ0Am1daT7-11" target="BZglE8ulwBrZ0Am1daT7-53" edge="1">
          <mxGeometry width="50" height="50" relative="1" as="geometry">
            <mxPoint x="1060" y="889" as="sourcePoint" />
            <mxPoint x="1110" y="839" as="targetPoint" />
          </mxGeometry>
        </mxCell>
        <mxCell id="BZglE8ulwBrZ0Am1daT7-66" value="" style="endArrow=none;html=1;rounded=0;fontSize=12;startSize=8;endSize=8;curved=1;exitX=1;exitY=0.75;exitDx=0;exitDy=0;" parent="1" source="BZglE8ulwBrZ0Am1daT7-11" target="BZglE8ulwBrZ0Am1daT7-52" edge="1">
          <mxGeometry width="50" height="50" relative="1" as="geometry">
            <mxPoint x="1125" y="915" as="sourcePoint" />
            <mxPoint x="1175" y="865" as="targetPoint" />
          </mxGeometry>
        </mxCell>
        <mxCell id="BZglE8ulwBrZ0Am1daT7-67" value="" style="endArrow=none;html=1;rounded=0;fontSize=12;startSize=8;endSize=8;curved=1;entryX=0;entryY=0;entryDx=0;entryDy=0;exitX=1;exitY=1;exitDx=0;exitDy=0;" parent="1" source="BZglE8ulwBrZ0Am1daT7-11" target="BZglE8ulwBrZ0Am1daT7-51" edge="1">
          <mxGeometry width="50" height="50" relative="1" as="geometry">
            <mxPoint x="1031" y="979" as="sourcePoint" />
            <mxPoint x="1081" y="929" as="targetPoint" />
          </mxGeometry>
        </mxCell>
        <mxCell id="BZglE8ulwBrZ0Am1daT7-68" value="" style="endArrow=none;html=1;rounded=0;fontSize=12;startSize=8;endSize=8;curved=1;exitX=0.5;exitY=1;exitDx=0;exitDy=0;" parent="1" source="BZglE8ulwBrZ0Am1daT7-11" target="BZglE8ulwBrZ0Am1daT7-50" edge="1">
          <mxGeometry width="50" height="50" relative="1" as="geometry">
            <mxPoint x="961" y="966" as="sourcePoint" />
            <mxPoint x="1011" y="916" as="targetPoint" />
          </mxGeometry>
        </mxCell>
        <mxCell id="BZglE8ulwBrZ0Am1daT7-69" value="APIID" style="ellipse;whiteSpace=wrap;html=1;fontSize=16;" parent="1" vertex="1">
          <mxGeometry x="344" y="1083" width="120" height="80" as="geometry" />
        </mxCell>
        <mxCell id="BZglE8ulwBrZ0Am1daT7-70" value="" style="endArrow=none;html=1;rounded=0;fontSize=12;startSize=8;endSize=8;curved=1;entryX=0.5;entryY=1;entryDx=0;entryDy=0;" parent="1" source="BZglE8ulwBrZ0Am1daT7-44" target="BZglE8ulwBrZ0Am1daT7-14" edge="1">
          <mxGeometry width="50" height="50" relative="1" as="geometry">
            <mxPoint x="470" y="1322" as="sourcePoint" />
            <mxPoint x="540.7106781186548" y="1272" as="targetPoint" />
          </mxGeometry>
        </mxCell>
        <mxCell id="BZglE8ulwBrZ0Am1daT7-71" value="" style="endArrow=none;html=1;rounded=0;fontSize=12;startSize=8;endSize=8;curved=1;entryX=0.5;entryY=0;entryDx=0;entryDy=0;" parent="1" source="BZglE8ulwBrZ0Am1daT7-69" target="BZglE8ulwBrZ0Am1daT7-14" edge="1">
          <mxGeometry width="50" height="50" relative="1" as="geometry">
            <mxPoint x="464" y="1173" as="sourcePoint" />
            <mxPoint x="534.7106781186548" y="1123" as="targetPoint" />
          </mxGeometry>
        </mxCell>
        <mxCell id="BZglE8ulwBrZ0Am1daT7-72" value="" style="endArrow=none;html=1;rounded=0;fontSize=12;startSize=8;endSize=8;curved=1;" parent="1" source="BZglE8ulwBrZ0Am1daT7-45" target="BZglE8ulwBrZ0Am1daT7-14" edge="1">
          <mxGeometry width="50" height="50" relative="1" as="geometry">
            <mxPoint x="382" y="1249" as="sourcePoint" />
            <mxPoint x="452.71067811865476" y="1199" as="targetPoint" />
          </mxGeometry>
        </mxCell>
        <mxCell id="BZglE8ulwBrZ0Am1daT7-73" value="" style="endArrow=none;html=1;rounded=0;fontSize=12;startSize=8;endSize=8;curved=1;entryX=0.5;entryY=0;entryDx=0;entryDy=0;" parent="1" source="BZglE8ulwBrZ0Am1daT7-49" target="BZglE8ulwBrZ0Am1daT7-12" edge="1">
          <mxGeometry width="50" height="50" relative="1" as="geometry">
            <mxPoint x="987.2893218813452" y="1173" as="sourcePoint" />
            <mxPoint x="987.2893218813452" y="1123" as="targetPoint" />
          </mxGeometry>
        </mxCell>
        <mxCell id="BZglE8ulwBrZ0Am1daT7-74" value="" style="endArrow=none;html=1;rounded=0;fontSize=12;startSize=8;endSize=8;curved=1;entryX=1;entryY=0.5;entryDx=0;entryDy=0;" parent="1" source="BZglE8ulwBrZ0Am1daT7-48" target="BZglE8ulwBrZ0Am1daT7-12" edge="1">
          <mxGeometry width="50" height="50" relative="1" as="geometry">
            <mxPoint x="1094.2893218813451" y="1224" as="sourcePoint" />
            <mxPoint x="1094.2893218813451" y="1174" as="targetPoint" />
          </mxGeometry>
        </mxCell>
        <mxCell id="BZglE8ulwBrZ0Am1daT7-75" value="" style="endArrow=none;html=1;rounded=0;fontSize=12;startSize=8;endSize=8;curved=1;entryX=1;entryY=1;entryDx=0;entryDy=0;" parent="1" source="BZglE8ulwBrZ0Am1daT7-47" target="BZglE8ulwBrZ0Am1daT7-12" edge="1">
          <mxGeometry width="50" height="50" relative="1" as="geometry">
            <mxPoint x="1094.2893218813451" y="1315" as="sourcePoint" />
            <mxPoint x="1094.2893218813451" y="1265" as="targetPoint" />
          </mxGeometry>
        </mxCell>
        <mxCell id="BZglE8ulwBrZ0Am1daT7-76" value="" style="endArrow=none;html=1;rounded=0;fontSize=12;startSize=8;endSize=8;curved=1;entryX=0.5;entryY=1;entryDx=0;entryDy=0;" parent="1" source="BZglE8ulwBrZ0Am1daT7-46" target="BZglE8ulwBrZ0Am1daT7-12" edge="1">
          <mxGeometry width="50" height="50" relative="1" as="geometry">
            <mxPoint x="987.2893218813452" y="1374" as="sourcePoint" />
            <mxPoint x="987.2893218813452" y="1324" as="targetPoint" />
          </mxGeometry>
        </mxCell>
        <mxCell id="BZglE8ulwBrZ0Am1daT7-77" value="" style="edgeStyle=none;curved=1;rounded=0;orthogonalLoop=1;jettySize=auto;html=1;fontSize=12;startSize=8;endSize=8;" parent="1" source="BZglE8ulwBrZ0Am1daT7-79" target="BZglE8ulwBrZ0Am1daT7-1" edge="1">
          <mxGeometry relative="1" as="geometry" />
        </mxCell>
        <mxCell id="BZglE8ulwBrZ0Am1daT7-78" value="" style="edgeStyle=none;curved=1;rounded=0;orthogonalLoop=1;jettySize=auto;html=1;fontSize=12;startSize=8;endSize=8;exitX=0;exitY=1;exitDx=0;exitDy=0;" parent="1" source="BZglE8ulwBrZ0Am1daT7-79" target="BZglE8ulwBrZ0Am1daT7-5" edge="1">
          <mxGeometry relative="1" as="geometry">
            <mxPoint x="730" y="537" as="targetPoint" />
          </mxGeometry>
        </mxCell>
        <mxCell id="BZglE8ulwBrZ0Am1daT7-79" value="categorize" style="rhombus;whiteSpace=wrap;html=1;fontSize=16;rounded=0;" parent="1" vertex="1">
          <mxGeometry x="690" y="310" width="115" height="107" as="geometry" />
        </mxCell>
        <mxCell id="BZglE8ulwBrZ0Am1daT7-80" value="" style="endArrow=none;html=1;rounded=0;fontSize=12;startSize=8;endSize=8;curved=1;entryX=1;entryY=0.25;entryDx=0;entryDy=0;" parent="1" source="BZglE8ulwBrZ0Am1daT7-33" target="BZglE8ulwBrZ0Am1daT7-5" edge="1">
          <mxGeometry width="50" height="50" relative="1" as="geometry">
            <mxPoint x="967.2893218813452" y="538" as="sourcePoint" />
            <mxPoint x="967.2893218813452" y="488" as="targetPoint" />
          </mxGeometry>
        </mxCell>
        <mxCell id="BZglE8ulwBrZ0Am1daT7-81" value="" style="endArrow=none;html=1;rounded=0;fontSize=12;startSize=8;endSize=8;curved=1;entryX=1;entryY=1;entryDx=0;entryDy=0;" parent="1" source="BZglE8ulwBrZ0Am1daT7-32" target="BZglE8ulwBrZ0Am1daT7-5" edge="1">
          <mxGeometry width="50" height="50" relative="1" as="geometry">
            <mxPoint x="967.2893218813452" y="660" as="sourcePoint" />
            <mxPoint x="967.2893218813452" y="610" as="targetPoint" />
          </mxGeometry>
        </mxCell>
        <mxCell id="BZglE8ulwBrZ0Am1daT7-82" style="edgeStyle=none;curved=1;rounded=0;orthogonalLoop=1;jettySize=auto;html=1;entryX=0.5;entryY=1;entryDx=0;entryDy=0;fontSize=12;startSize=8;endSize=8;" parent="1" source="BZglE8ulwBrZ0Am1daT7-83" target="BZglE8ulwBrZ0Am1daT7-4" edge="1">
          <mxGeometry relative="1" as="geometry" />
        </mxCell>
        <mxCell id="BZglE8ulwBrZ0Am1daT7-83" value="access " style="rhombus;whiteSpace=wrap;html=1;fontSize=16;rounded=0;" parent="1" vertex="1">
          <mxGeometry x="531" y="553" width="80" height="80" as="geometry" />
        </mxCell>
        <mxCell id="BZglE8ulwBrZ0Am1daT7-84" style="edgeStyle=none;curved=1;rounded=0;orthogonalLoop=1;jettySize=auto;html=1;entryX=0.75;entryY=1;entryDx=0;entryDy=0;fontSize=12;startSize=8;endSize=8;" parent="1" source="BZglE8ulwBrZ0Am1daT7-85" target="BZglE8ulwBrZ0Am1daT7-4" edge="1">
          <mxGeometry relative="1" as="geometry" />
        </mxCell>
        <mxCell id="BZglE8ulwBrZ0Am1daT7-85" value="have" style="rhombus;whiteSpace=wrap;html=1;fontSize=16;rounded=0;" parent="1" vertex="1">
          <mxGeometry x="735" y="656" width="80" height="80" as="geometry" />
        </mxCell>
        <mxCell id="BZglE8ulwBrZ0Am1daT7-86" style="edgeStyle=none;curved=1;rounded=0;orthogonalLoop=1;jettySize=auto;html=1;entryX=0.25;entryY=1;entryDx=0;entryDy=0;fontSize=12;startSize=8;endSize=8;" parent="1" source="BZglE8ulwBrZ0Am1daT7-87" target="BZglE8ulwBrZ0Am1daT7-4" edge="1">
          <mxGeometry relative="1" as="geometry" />
        </mxCell>
        <mxCell id="BZglE8ulwBrZ0Am1daT7-87" value="receive" style="rhombus;whiteSpace=wrap;html=1;fontSize=16;rounded=0;" parent="1" vertex="1">
          <mxGeometry x="388" y="438" width="80" height="80" as="geometry" />
        </mxCell>
        <mxCell id="BZglE8ulwBrZ0Am1daT7-88" style="edgeStyle=none;curved=1;rounded=0;orthogonalLoop=1;jettySize=auto;html=1;fontSize=12;startSize=8;endSize=8;" parent="1" source="BZglE8ulwBrZ0Am1daT7-89" target="BZglE8ulwBrZ0Am1daT7-4" edge="1">
          <mxGeometry relative="1" as="geometry" />
        </mxCell>
        <mxCell id="BZglE8ulwBrZ0Am1daT7-89" value="accessed " style="rhombus;whiteSpace=wrap;html=1;fontSize=16;rounded=0;" parent="1" vertex="1">
          <mxGeometry x="745" y="997" width="80" height="80" as="geometry" />
        </mxCell>
      </root>
    </mxGraphModel>
  </diagram>
</mxfile>
